<?xml version="1.0" standalone="no"?>
<!DOCTYPE svg PUBLIC "-//W3C//DTD SVG 1.1//EN" "http://www.w3.org/Graphics/SVG/1.1/DTD/svg11.dtd">
<svg xmlns="http://www.w3.org/2000/svg" id="Layer_1" data-name="Layer 1" viewBox="0 0 924.06 389.27" width="924.0599975585938" height="389.2699890136719"><defs><style>.cls-1{fill:#216f9a;}.cls-2{fill:#004982;}.cls-3{fill:#dadada;}.cls-4{fill:#d8b49e;}.cls-5{fill:#fcc149;}.cls-6{fill:#fff;}</style></defs><title>zivo_logo</title><path class="cls-1" d="M388.42,247.05v78.38H373.06V247.05Z"/><path class="cls-1" d="M454.18,290.29v35.14H439.73V293.26c0-7.42-3.07-13-11.26-13-8.54,0-12.29,6.39-12.29,13v32.17H401.84V267.59h14.34v7.07c3.18-4.68,8.42-8.44,16.84-8.44C447.58,266.22,454.18,278.08,454.18,290.29Z"/><path class="cls-1" d="M511.17,307.63c0,11.41-8.31,19.28-24.47,19.28-11,0-22.18-4.45-24.8-14.15l13.88-4.33c.46,2.39,2.73,6.27,11.15,6.27,6,0,9.45-2.17,9.45-6,0-5.48-8.31-5.25-15.14-6.74-11.15-2.28-16.84-7.64-16.84-17.56,0-10.95,9.11-18.14,22.65-18.14,9.89,0,19.68,4.91,22.07,14.95L496,284.36c-.68-3-3.52-5.93-9-5.93-4.21,0-8.54,1.59-8.54,5.93,0,5.13,7.74,5.47,12.29,6.5C504.91,293.94,511.17,297.82,511.17,307.63Z"/><path class="cls-1" d="M572.37,267.59v57.84H557.92v-7.08c-3.19,4.79-8.31,8.56-16.73,8.56C526.63,326.91,520,315,520,302.84V267.59h14.45v32.17c0,7.41,3.07,13,11.15,13,8.65,0,12.29-6.27,12.29-13V267.59Z"/><path class="cls-1" d="M618.89,266.22V282c-17.07-2-19.23,8.9-19.23,19.63v23.84H585.21V267.59h14.45v9.47A22.9,22.9,0,0,1,618.89,266.22Z"/><path class="cls-1" d="M674.4,290.52v34.91H660v-6.17c-2.73,4.46-9.1,7.65-16.84,7.65-8.64,0-20.48-4.68-20.48-17,0-19.05,23.44-19.05,31.06-19.05H660c-.11-8.33-3.07-12-11.94-12-5.24,0-9.9,2.74-12.06,4.22l-9.9-7.53a34.66,34.66,0,0,1,24-9.35C668.37,266.22,674.4,276.71,674.4,290.52ZM660,300H659c-10.35,0-21.62-.12-21.62,8.55,0,4.34,2.85,7.87,10,7.87,7.39,0,11.26-4.22,12.51-6.61Z"/><path class="cls-1" d="M739.58,290.29v35.14H725.13V293.26c0-7.42-3.07-13-11.26-13-8.53,0-12.29,6.39-12.29,13v32.17H687.25V267.59h14.33v7.07c3.19-4.68,8.42-8.44,16.84-8.44C733,266.22,739.58,278.08,739.58,290.29Z"/><path class="cls-1" d="M792.82,305.58l12.62,7.18a30.29,30.29,0,1,1,0-32.51l-12.62,7.3a14.84,14.84,0,0,0-13.32-7.41c-9.67,0-15.7,7.41-15.7,16.43s6,16.42,15.7,16.42A14.86,14.86,0,0,0,792.82,305.58Z"/><path class="cls-1" d="M866.76,302.15H824c2,7.76,8.42,11.87,16.38,11.87a16.82,16.82,0,0,0,12.86-5.71l11.6,6.85c-4.66,6.5-13.54,11.75-24.46,11.75-19.11,0-31.74-12.78-31.74-30.34,0-18.14,13.54-30.35,29.47-30.35C855.49,266.22,869.37,279.34,866.76,302.15ZM852.65,291c-1.48-7.53-6.6-11.87-14.34-11.87-7,0-12.63,4.45-14.33,11.87Z"/><path class="cls-2" d="M486.78,197.86v28H373.06v-24l74.85-103.5H377.06v-28H484.78v24l-72.85,103.5Z"/><path class="cls-2" d="M539,70.37V225.85H509V70.37Z"/><path class="cls-2" d="M705.58,70.37l-56,155.48H612.52L556.77,70.37h31.76l42.65,125,42.42-125Z"/><path class="cls-2" d="M867.08,148.11c0,45.53-33.1,80.62-79.08,80.62s-79.06-35.09-79.06-80.62S742,67.7,788,67.7,867.08,102.58,867.08,148.11Zm-30.21,0c0-25.76-16.66-51.75-48.87-51.75s-48.86,26-48.86,51.75c0,26,16.66,52,48.86,52S836.87,174.1,836.87,148.11Z"/><path class="cls-3" d="M259.13,195.3s0,0,.05,0a87.94,87.94,0,0,0,5.14-9.42A98.84,98.84,0,0,1,259.13,195.3Zm-.87-.36a15.9,15.9,0,0,0-1.37-1.22c-.48-.41-1-.79-1.48-1.15s-.91-.68-1.4-1a2.27,2.27,0,0,0-.28-.18c-.48-.3-1-.61-1.48-.89s-1.12-.64-1.7-.92-1.07-.56-1.63-.79c-.15-.07-.31-.12-.46-.2-.48-.2-1-.41-1.45-.59s-1.2-.48-1.83-.68-1.46-.46-2.19-.67c-.54-.15-1.1-.3-1.66-.43s-1.32-.3-2-.43-1.32-.26-2-.36a34.54,34.54,0,0,0-3.9-.46c-.15,0-.3,0-.46,0-.38,0-.76-.05-1.14-.05h-.13a49.27,49.27,0,0,0-5.83,0c-.89.05-1.78.13-2.7.23l-.18,0c-1.35.18-2.7.38-4,.66h0c-1.32.28-2.62.62-3.89,1s-2.52.82-3.75,1.3c-.61.23-1.19.51-1.78.79s-1.12.54-1.68.82a.11.11,0,0,0-.1.05,16.75,16.75,0,0,0-1.61.91c-.53.31-1,.64-1.55,1,0,0,0,0-.05.05-.51.33-1,.69-1.48,1.07a27.31,27.31,0,0,0-2.72,2.42,25,25,0,0,0-2.57,3,19.86,19.86,0,0,0-1.43,2.09,23.06,23.06,0,0,0-1.2,2.19,22.43,22.43,0,0,0-.94,2.24c-.2.56-.38,1.12-.53,1.7a12.58,12.58,0,0,0-.44,1.84,6.82,6.82,0,0,0-.2,1.17,4.93,4.93,0,0,0-.15,1.2,7.17,7.17,0,0,0-.08,1,1.28,1.28,0,0,0,0,.43,27.65,27.65,0,0,0,1.42,9.88,36.18,36.18,0,0,0,2.75,6.52,37.78,37.78,0,0,0,1.94,3.26c.28.46.58.89.89,1.33s.51.73.79,1.09.48.66.76,1,.43.56.69.87c.41.51.84,1,1.3,1.53.79.91,1.63,1.78,2.52,2.65.41.43.81.84,1.25,1.22.68.66,1.42,1.32,2.16,1.93.36.33.74.64,1.12.94.87.72,1.78,1.43,2.7,2.09l.69.54c1,.74,2.09,1.45,3.18,2.14s2.32,1.45,3.52,2.14h0c1.15.68,2.34,1.32,3.54,1.91a55.3,55.3,0,0,1-15.76-17.65c-6.62-12.5-5.37-24.42,3.38-33.31C222.18,191.45,242.86,189,258.26,194.94Zm-54.49-77.18s0,0,0,0c.76-.33,1.5-.63,2.21-1C205.27,117.15,204.53,117.45,203.77,117.76Z"/><path class="cls-3" d="M261.62,142.37c-1.23-.71-2.51-1.32-3.83-1.94,15.76,12.76,16.06,31.29,1.37,54.87a33.44,33.44,0,0,1,11.13,7.26C287.23,175.54,284.55,155.08,261.62,142.37Z"/><path class="cls-3" d="M235.65,108.44a27.92,27.92,0,0,1-7.66,8.91,48.1,48.1,0,0,1-8.53,5.43c-.54.25-1.12.53-1.68.78-1.15-.43-2.35-.86-3.52-1.27-.25-.1-.53-.2-.81-.33l-2-.71c-1-.41-2.09-.82-3.11-1.28-.43-.17-.86-.35-1.29-.56s-1.1-.5-1.63-.79a16.72,16.72,0,0,1-1.63-.84c.76-.33,1.5-.63,2.21-1s1.43-.67,2.12-1h0a45.79,45.79,0,0,0,4.48-2.54,48.29,48.29,0,0,0,4-2.85l0,0c.43-.33.84-.69,1.25-1s.79-.69,1.17-1.07a13.28,13.28,0,0,0,1.07-1.05,24.47,24.47,0,0,0,4.15-5.75A14.79,14.79,0,0,0,224.7,88c-.18-.38-.41-.74-.63-1.12a3.18,3.18,0,0,0-.54-.81,3.9,3.9,0,0,0-.25-.36,4.25,4.25,0,0,0-.69-.87,8,8,0,0,0-.89-1c-.41-.41-.87-.82-1.35-1.23-1.53-1.29,9.62,5.56,11.33,7C237.71,94.54,239.06,101.69,235.65,108.44Z"/><path class="cls-4" d="M197.53,102.86c-2.14.61-4.48,1.17-6.95,1.79-5.12,1.37-12.73,2-17.42,2.16s-15.45-3.23-16.17-3.41a54.4,54.4,0,0,0-12.22-1.56,60.93,60.93,0,0,0-8,.46,67.73,67.73,0,0,0-7.77,1.45c-2.54.61-5.06,1.38-7.53,2.22s-5,1.78-7.41,2.8c-5,2-9.91,4.35-14.62,6.7-4.15,2.06-8,4.17-11.51,6.13.13-.53.28-1.07.43-1.6a25.59,25.59,0,0,1,3.13-6.54,35.14,35.14,0,0,1,5.33-6.17,61.07,61.07,0,0,1,10.82-7.76A59.73,59.73,0,0,1,121,93.85c2.57-.74,5.09-1.3,7.67-1.91l1.83-.46c.43.36.84.66,1.25.94a8.46,8.46,0,0,0,4.81,1.4h0a8,8,0,0,0,5.11-2l.49-.41a12.16,12.16,0,0,0,2.47-2.78c.51-.86,1.19-1.19,3.13-1.75,2.67-.87,5.19-1.79,7.74-2.73s5.07-1.83,7.74-2.65a69.5,69.5,0,0,1,8.41-1.68,79.28,79.28,0,0,1,9.54-.71,104.2,104.2,0,0,1,12.2,1.32c-.41,3.44-2.14,6.19-3,6.83a60.17,60.17,0,0,1-14,7.66A46,46,0,0,1,169.9,97l0,0C170.59,97.46,182.69,104.75,197.53,102.86Z"/><path class="cls-5" d="M254.57,169.35c-72-8.35-117.74,25.49-140.08,91.8-10.31-13-16.6-27.25-17.72-43.95-.33-4.84,2.93-11.77,5.68-15.82A106,106,0,0,1,155,160.54c-8.79-2.6-18.34-1-18.34-1-17.49,2.85-27.42,5.55-40.28,12,0-6.67,0-13.64,0-20.42.23-.1.46-.15.69-.25a16.83,16.83,0,0,1,1.7-.84c.69-.31,1.35-.61,2-1l7.9-4.28q6.65-3.63,13.37-7.15c4.4-2.27,8.91-4.41,13.16-6.34s8.3-3.62,11.82-5.1a20.33,20.33,0,0,1,8-1.65,147.26,147.26,0,0,0,17.82-.28h0c.53,0,1,0,1.53,0a77.66,77.66,0,0,0,9.72-1q1.75,1.53,3.44,3.16a50.73,50.73,0,0,0,8.68,6.9h0c3.18,5.76,7.21,10.8,11.87,11.46,6.21.84,15.66-1.63,25.26.38,0,0,0,0,.05,0h.05a79.69,79.69,0,0,1,9.29,4.79C248.28,153.28,251.39,162.35,254.57,169.35Z"/><path class="cls-5" d="M251.36,279.91c-20.42,12-40.74,24.2-61.37,35.83-1.91,1.07-6-.51-8.5-1.93-7.51-4.33-15-8.76-22.41-13.19a3.65,3.65,0,0,0-.36-.21c-3-1.88-6.06-3.69-9.19-5.47-8.07-4.56-8.71-11.38-6.41-19.86,6.13-22.74,16.6-42.25,34.68-58.14,3.31,22.77,14.31,37.82,36.18,49.2l.92.46c1.17.61,2.37,1.19,3.59,1.75.86.41,1.76.82,2.65,1.2s1.83.82,2.75,1.2c.1,0,.18.07.28.1,1.09.46,2.21.92,3.36,1.35,1.4.53,2.83,1.07,4.28,1.6,1.09.39,2.21.79,3.36,1.17s2.26.79,3.44,1.15Q244.64,278.07,251.36,279.91Z"/><path class="cls-2" d="M310,94.36c.1-8.23-3-11.77-10.31-14.42C280.9,73.09,256.43,67,237.61,63.67c-4.17-.4-1.47,4.89,1.45,10.47,2.07,3.92,6.27,7.69,10.22,8.58,10.64,2.27,21.23,4.48,31.9,8,7.08,2.31,12.66,4.12,12.48,14-.69,36.11-.2,63.28-.33,99.41-.08,18-6.22,34.13-17.06,48.33-2.27,3-5.58,6.22-9,7.16-13,3.54-29.21.53-43.16-6.49a.35.35,0,0,0-.08,0c-1.2-.59-2.39-1.23-3.54-1.91h0c-1.2-.69-2.37-1.41-3.52-2.14s-2.14-1.4-3.18-2.14l-.69-.54c-.92-.66-1.83-1.37-2.7-2.09-.38-.3-.76-.61-1.12-.94-.74-.61-1.48-1.27-2.16-1.93-.44-.38-.84-.79-1.25-1.22-.89-.87-1.73-1.74-2.52-2.65-.46-.51-.89-1-1.3-1.53-.26-.31-.48-.59-.69-.87s-.53-.66-.76-1-.54-.71-.79-1.09-.61-.87-.89-1.33a37.78,37.78,0,0,1-1.94-3.26,36.18,36.18,0,0,1-2.75-6.52,27.65,27.65,0,0,1-1.42-9.88,1.28,1.28,0,0,1,0-.43,3.63,3.63,0,0,1,.08-1,4.93,4.93,0,0,1,.15-1.2,6.82,6.82,0,0,1,.2-1.17,12.58,12.58,0,0,1,.44-1.84c.15-.58.33-1.14.53-1.7a22.43,22.43,0,0,1,.94-2.24,23.06,23.06,0,0,1,1.2-2.19,19.86,19.86,0,0,1,1.43-2.09,25,25,0,0,1,2.57-3v0a25.84,25.84,0,0,1,2.72-2.39,15.94,15.94,0,0,1,1.48-1.07c0-.05,0-.05.05-.05a14.22,14.22,0,0,1,1.55-1,16.75,16.75,0,0,1,1.61-.91.11.11,0,0,1,.1-.05,13,13,0,0,1,1.68-.82c.59-.28,1.17-.56,1.78-.79,1.23-.48,2.47-.92,3.75-1.3s2.57-.71,3.89-1h0c1.32-.28,2.67-.48,4-.66l.18,0c.92-.1,1.81-.18,2.7-.23a49.27,49.27,0,0,1,5.83,0h.13c.38,0,.76,0,1.14.05.16,0,.31,0,.46,0a34.54,34.54,0,0,1,3.9.46c.66.1,1.32.21,2,.36s1.33.25,2,.43,1.12.28,1.66.43c.73.21,1.47.44,2.19.67s1.22.43,1.83.68,1,.39,1.45.59c.15.08.31.13.46.2.56.23,1.09.51,1.63.79s1.14.59,1.7.92,1,.59,1.48.89a2.27,2.27,0,0,1,.28.18c.49.31.94.64,1.4,1s1,.74,1.48,1.15a15.9,15.9,0,0,1,1.37,1.22c.26.23.49.46.72.69.07-.1.12-.21.2-.31a87.94,87.94,0,0,0,5.14-9.42c.49-1,.95-2,1.35-3,.28-.67.54-1.33.79-2s.51-1.3.72-1.94.43-1.3.63-1.91.39-1.17.54-1.76c.38-1.5.71-3,1-4.38.05-.4.12-.81.17-1.22.11-.74.18-1.45.23-2.16a5.65,5.65,0,0,0,.08-.89c.05-.59.08-1.18.08-1.76,0-.94,0-1.86-.11-2.78,0-.3,0-.63-.07-.94a5.77,5.77,0,0,0-.08-.58,1.94,1.94,0,0,0,0-.34,1.45,1.45,0,0,1-.06-.33,12.76,12.76,0,0,0-.28-1.45,6.47,6.47,0,0,0-.15-.81c-.13-.59-.28-1.17-.46-1.76a19.74,19.74,0,0,0-.63-1.88,2.43,2.43,0,0,0-.16-.36,8.53,8.53,0,0,0-.56-1.33,8,8,0,0,0-.35-.78c-.28-.59-.59-1.15-.89-1.71s-.69-1.15-1.07-1.71c-.21-.28-.41-.58-.61-.86s-.44-.59-.67-.87c-.33-.43-.66-.86-1-1.27s-.74-.84-1.12-1.25-.61-.64-.94-1-.89-.86-1.35-1.27-1-.84-1.48-1.25a49.12,49.12,0,0,0-7.51-5c-9.93-5.5-21.7-7.64-32.44-11.76-.59-.23-1.17-.46-1.76-.67s-1.2-.43-1.81-.66c-.25-.1-.53-.2-.81-.33l-2-.71c-1-.41-2.09-.82-3.11-1.28-.43-.17-.86-.35-1.29-.56a11.64,11.64,0,0,1-1.63-.79,16.72,16.72,0,0,1-1.63-.84c.76-.33,1.5-.63,2.21-1s1.43-.67,2.12-1h0c1.58-.81,3.08-1.65,4.48-2.54a48.29,48.29,0,0,0,4-2.85l0,0,1.25-1c.41-.36.79-.72,1.17-1.07a13.28,13.28,0,0,0,1.07-1.05,24.47,24.47,0,0,0,4.15-5.75A14.79,14.79,0,0,0,224.7,88c-.18-.38-.41-.74-.63-1.12a9.5,9.5,0,0,0-.54-.81,3.9,3.9,0,0,0-.25-.36c-.21-.28-.44-.59-.69-.87s-.59-.66-.89-1-.87-.82-1.35-1.23c0,0-.08-.07-.13-.1A41.72,41.72,0,0,0,214.64,79c-.43-.23-.84-.43-2.16-2.06a11.71,11.71,0,0,1-.59-3c-.4-4.86-4.07-7.69-8.22-9.6a53.05,53.05,0,0,0-11.28-3.46c-3.39-.74-6.67-1.53-9.91-2.24-2.09-.46-4.17-.85-6.26-1.15a76.18,76.18,0,0,0-9-.76c-2.45-.06-4.94,0-7.46.2s-5.09.46-7.69.86-5.25,1-7.85,1.66-5.14,1.5-7.69,2.37L132.65,63l-.08-.15c-.84-1.48-1.65-2.93-2.52-4.41-1.3-2.16-2.93-3.26-5.07-3.23a4.89,4.89,0,0,0-1.75.43c-2.75,1.12-6.09,2.88-7.54,7.16l-.2.61A21.92,21.92,0,0,0,114.24,68a1.16,1.16,0,0,1-.48.15l-2.88.69A134.86,134.86,0,0,0,97.25,72.1a73.57,73.57,0,0,0-8.91,4.05,85.86,85.86,0,0,0-8.35,5,78,78,0,0,0-7.41,5.6,68.08,68.08,0,0,0-6.21,6A41,41,0,0,0,60.05,103a38.09,38.09,0,0,0-2.8,11.08,52.86,52.86,0,0,0,.15,11.84A89.7,89.7,0,0,0,60,138.38,9.73,9.73,0,0,0,66,145.21c.2,16.45.25,32.9-.13,49.35-.79,35.32,11.36,65.72,38.76,87.24C129,301,156.41,316.25,182.71,332.88c2.4,1.53,7.41,1.66,9.7.15,28.29-18.41,57.76-35.44,84-56.55,23.09-18.59,33.28-45.89,33.41-76C310,162.12,309.6,132.71,310,94.36ZM74.62,128.73c-.05-.2-.13-.51-.21-.89a29.61,29.61,0,0,1,.46-14.36A25.28,25.28,0,0,1,78,106.94a36.84,36.84,0,0,1,5.33-6.17A62.14,62.14,0,0,1,94.17,93a60.17,60.17,0,0,1,13.32-5.68c2.6-.74,5.09-1.3,7.69-1.91l1.83-.48a10.35,10.35,0,0,0,1.23.94,8.39,8.39,0,0,0,4.81,1.42h0a8.36,8.36,0,0,0,5.12-2l.46-.44a10.75,10.75,0,0,0,2.47-2.75c.51-.89,1.19-1.19,3.15-1.78,2.65-.86,5.2-1.78,7.72-2.7s5.09-1.83,7.74-2.65a63.37,63.37,0,0,1,8.4-1.68,79.92,79.92,0,0,1,9.55-.71,105.15,105.15,0,0,1,13.4,1.5c3.41.64,5.91,1.23,7.74,1.68,3.67.95,4.51,1.56,4.51,1.56a11.51,11.51,0,0,1,0,3.1c-.41,3.44-2.14,6.19-3,6.83a60.17,60.17,0,0,1-14,7.66A46,46,0,0,1,169.9,97l0,0a34.71,34.71,0,0,0,8.4,1.47,52.06,52.06,0,0,0,9.27-.12,55.71,55.71,0,0,0,11.59-2.47c3.84-1.25,6.59-3.93,7.48-7.21,2.22,2.47,3,3.79,2.32,6.75-.33,1.6-2.55,3.33-4.63,4.66a26.87,26.87,0,0,1-6.78,2.72h-.05c-2.14.61-4.48,1.17-6.95,1.79-5.12,1.37-12.73,2-17.42,2.16s-15.45-3.23-16.17-3.41a54.4,54.4,0,0,0-12.22-1.56,60.93,60.93,0,0,0-8,.46,67.73,67.73,0,0,0-7.77,1.45c-2.54.61-5.06,1.38-7.53,2.22s-5,1.78-7.41,2.8c-5,2-9.91,4.35-14.62,6.7-4.15,2.06-8,4.17-11.51,6.13l-1.38.77-2.11,1.22c-2.8,1.63-5.7,3.13-9.14,4.86A4,4,0,0,1,74.62,128.73Zm39.87,132.44c-.66,2-1.29,4-1.93,6-17.06-16.29-27.73-34.25-29.23-56.5-.34-4.84,2.39-12.2,5.67-15.82,16.68-18.43,25.67-22.61,47.62-35.34-17.49,2.85-27.42,5.55-40.28,12-4.08,2-8.43,4.41-13.45,7.31,0-10.16-.1-22.53,0-34.25a6.35,6.35,0,0,0,.67-.28c.53-.28,1.09-.53,1.7-.81s1.38-.61,2-1c2.58-1.4,5.17-2.8,7.9-4.3,4.43-2.4,8.88-4.79,13.39-7.13s8.89-4.41,13.14-6.34,8.3-3.65,11.82-5.1a19.57,19.57,0,0,1,8-1.65c3.8.07,10.93,2.34,14.92,3.64A59.24,59.24,0,0,0,171,124.2c.63,0,1.25,0,1.88,0h0c.53,0,1,0,1.53,0a77.66,77.66,0,0,0,9.72-1q1.75,1.53,3.44,3.16a50.73,50.73,0,0,0,8.68,6.9h0A47.13,47.13,0,0,0,215.48,140a70,70,0,0,1,17.91,5.17s0,0,.05,0h.05a79.69,79.69,0,0,1,9.29,4.79c5.5,3.33,8.61,12.4,11.79,19.4-72-8.35-117.74,25.49-140.08,91.8ZM190,315.74c-1.91,1.07-6-.51-8.5-1.93-7.51-4.33-15-8.76-22.41-13.19a3.65,3.65,0,0,0-.36-.21q-4.58-2.75-9.19-5.47c-4.28-2.52-8.58-5-12.91-7.46-8.07-4.56-9.27-10.44-7-18.92,7.44-27.48,21.19-50.27,47-67.69a111.78,111.78,0,0,0,1.12,16.07c3.31,22.77,14.31,37.82,36.18,49.2l.92.46c1.17.61,2.37,1.19,3.59,1.75.86.41,1.76.82,2.65,1.2s1.83.82,2.75,1.2c.1,0,.18.07.28.1,1.09.46,2.21.92,3.36,1.35,1.4.53,2.83,1.07,4.28,1.6,1.09.39,2.21.79,3.36,1.17s2.26.79,3.44,1.15q6,2,12.75,3.79C230.94,291.93,210.62,304.11,190,315.74Z"/><path class="cls-6" d="M143.12,275.08c-2.3,8.48-1.66,15.3,6.41,19.86-4.28-2.52-8.58-5-12.91-7.46-8.07-4.56-9.27-10.44-7-18.92,7.44-27.48,21.19-50.27,47-67.69a111.78,111.78,0,0,0,1.12,16.07C159.72,232.83,149.25,252.34,143.12,275.08Z"/><path class="cls-6" d="M102.45,201.38c-2.75,4.05-6,11-5.68,15.82,1.12,16.7,7.41,31,17.72,43.95v0c-.66,2-1.29,4-1.93,6-17.06-16.29-27.73-34.25-29.23-56.5-.34-4.84,2.39-12.2,5.67-15.82,16.68-18.43,25.67-22.61,47.62-35.34,0,0,9.55-1.58,18.34,1A106,106,0,0,0,102.45,201.38Z"/><path class="cls-6" d="M209,95.48c-.33,1.6-2.55,3.33-4.63,4.66a26.87,26.87,0,0,1-6.78,2.72h-.05c-14.84,1.89-26.94-5.4-27.6-5.8a34.71,34.71,0,0,0,8.4,1.47,52.06,52.06,0,0,0,9.27-.12,55.71,55.71,0,0,0,11.59-2.47c3.84-1.25,6.59-3.93,7.48-7.21C208.89,91.2,209.65,92.52,209,95.48Z"/><path class="cls-6" d="M233.39,145.13c-9.6-2-19,.46-25.26-.38-4.66-.66-8.69-5.7-11.87-11.46A47.13,47.13,0,0,0,215.48,140,70,70,0,0,1,233.39,145.13Z"/><path class="cls-6" d="M172.83,124.23a147.26,147.26,0,0,1-17.82.28,20.33,20.33,0,0,0-8,1.65c-3.52,1.48-7.57,3.19-11.82,5.1s-8.76,4.07-13.16,6.34-8.94,4.73-13.37,7.15l-7.9,4.28c-.66.36-1.32.66-2,1a16.83,16.83,0,0,0-1.7.84c-.23.1-.46.15-.69.25-.08,6.78-.08,13.75,0,20.42-4.08,2-8.43,4.41-13.45,7.31,0-10.16-.1-22.53,0-34.25a6.35,6.35,0,0,0,.67-.28c.53-.28,1.09-.53,1.7-.81s1.38-.61,2-1c2.58-1.4,5.17-2.8,7.9-4.3,4.43-2.4,8.88-4.79,13.39-7.13s8.89-4.41,13.14-6.34,8.3-3.65,11.82-5.1a19.57,19.57,0,0,1,8-1.65c3.8.07,10.93,2.34,14.92,3.64A59.24,59.24,0,0,0,171,124.2C171.58,124.23,172.2,124.23,172.83,124.23Z"/><path class="cls-6" d="M193.38,80.45a104.2,104.2,0,0,0-12.2-1.32,79.28,79.28,0,0,0-9.54.71,69.5,69.5,0,0,0-8.41,1.68c-2.67.82-5.22,1.71-7.74,2.65s-5.07,1.86-7.74,2.73c-1.94.56-2.62.89-3.13,1.75a12.16,12.16,0,0,1-2.47,2.78l-.49.41a8,8,0,0,1-5.11,2h0a8.46,8.46,0,0,1-4.81-1.4c-.41-.28-.82-.58-1.25-.94l-1.83.46c-2.58.61-5.1,1.17-7.67,1.91a59.73,59.73,0,0,0-13.34,5.68,61.07,61.07,0,0,0-10.82,7.76,35.14,35.14,0,0,0-5.33,6.17A25.59,25.59,0,0,0,88.34,120c-.15.53-.3,1.07-.43,1.6l-1.38.77-2.11,1.22c-2.8,1.63-5.7,3.13-9.14,4.86a4,4,0,0,1-.66.28c-.05-.2-.13-.51-.21-.89a29.61,29.61,0,0,1,.46-14.36A25.28,25.28,0,0,1,78,106.94a36.84,36.84,0,0,1,5.33-6.17A62.14,62.14,0,0,1,94.17,93a60.17,60.17,0,0,1,13.32-5.68c2.6-.74,5.09-1.3,7.69-1.91l1.83-.48a10.35,10.35,0,0,0,1.23.94,8.39,8.39,0,0,0,4.81,1.42h0a8.36,8.36,0,0,0,5.12-2l.46-.44a10.75,10.75,0,0,0,2.47-2.75c.51-.89,1.19-1.19,3.15-1.78,2.65-.86,5.2-1.78,7.72-2.7s5.09-1.83,7.74-2.65a63.37,63.37,0,0,1,8.4-1.68,79.92,79.92,0,0,1,9.55-.71,105.15,105.15,0,0,1,13.4,1.5c3.41.64,5.91,1.23,7.74,1.68,3.67.95,4.51,1.56,4.51,1.56A11.51,11.51,0,0,1,193.38,80.45Z"/></svg>