<?xml version="1.0" standalone="no"?>
<!DOCTYPE svg PUBLIC "-//W3C//DTD SVG 1.1//EN" "http://www.w3.org/Graphics/SVG/1.1/DTD/svg11.dtd">
<svg xmlns="http://www.w3.org/2000/svg" id="Layer_1" data-name="Layer 1" viewBox="0 0 612 188" width="612" height="188"><defs><style>.cls-1,.cls-4{fill:#007854;}.cls-1,.cls-2{fill-rule:evenodd;}.cls-2,.cls-3{fill:#003882;}</style></defs><title>BQL</title><path class="cls-1" d="M95.7,107.79C95.19,106,70,47.1,70,47.1l62.16-13.83L139,50.42H95.45Z"/><path class="cls-1" d="M104.08,123.85c-1.68-.81-62.46-21.1-62.46-21.1l27.49-49.4c1.83,4.27,4.41,10.31,7.19,16.82L59.47,90.83Z"/><path class="cls-1" d="M119.16,131.89c-1.82.42-61.87,22.77-61.87,22.77l-7.92-46,14.44,4.83-.11,20.7Z"/><path class="cls-2" d="M100,95.43h4.71q25.6,0,38.82,4.81t13.21,16.33q0,10.34-10.29,15.52t-29.1,5.17c-1.39,0-2.7,0-3.92,0-4.3,1.57-9.59,3.52-15.13,5.57h31.21q20.42,0,33.15-7.07t12.72-19q0-9.76-9-16.1t-23.91-8.53q13.78-2.33,20-7.58a16.45,16.45,0,0,0,6.24-13.12q0-12.37-12.88-18.72a56.29,56.29,0,0,0-14.1-4.53l1.62,4H122.42q12,.92,19.62,4.72,10.13,5,10.13,14.65,0,8.75-8.27,13.34t-23.34,4.59H99.94Z"/><path class="cls-3" d="M246,75c4.87,1.85,7.3,5.25,7.3,10.23a11.18,11.18,0,0,1-4.25,9.3,13.79,13.79,0,0,1-5,2.43,28.06,28.06,0,0,1-7,.75H207.42v-1a3.35,3.35,0,0,0,1.59-.82,2.26,2.26,0,0,0,.44-1.5V57.7a2.23,2.23,0,0,0-.44-1.49,3.26,3.26,0,0,0-1.59-.83v-1h29.34a29.44,29.44,0,0,1,6.79.64,11.6,11.6,0,0,1,4.51,2.16q3.84,3,3.85,8.7A9.46,9.46,0,0,1,246,75Zm-27.12-3.39h16.61q3.78,0,5.27-1.11a4.63,4.63,0,0,0,1.69-3.94,4.49,4.49,0,0,0-1.59-3.89q-1.59-1.16-5.37-1.16H218.91Zm0,19H235c3,0,5.13-.41,6.45-1.24a5.09,5.09,0,0,0,2.25-4.66A5.15,5.15,0,0,0,241.43,80q-1.94-1.24-6.45-1.24H218.91Z"/><path class="cls-3" d="M283.8,53.6q11.34,0,18,6.13a22.52,22.52,0,0,1,3.66,28.2q-6.58,10.54-21.58,10.54-11.24,0-17.88-6.13a21.26,21.26,0,0,1-5.41-7.84A22.56,22.56,0,0,1,259,76a22.26,22.26,0,0,1,3.34-11.91Q268.68,53.79,283.8,53.6Zm0,7.37a15,15,0,0,0-10.33,3.68A14.51,14.51,0,0,0,268.61,76a14.49,14.49,0,0,0,4.89,11.38,16.48,16.48,0,0,0,20.76,0A14.43,14.43,0,0,0,298,82.06a15.4,15.4,0,0,0,1.14-5.83q0-7.37-4.89-11.58A15.59,15.59,0,0,0,283.83,61Z"/><path class="cls-3" d="M326.3,68V94.37a2.2,2.2,0,0,0,.45,1.5,3.26,3.26,0,0,0,1.58.82v1H315.6v-1a3.35,3.35,0,0,0,1.59-.82,2.26,2.26,0,0,0,.44-1.5V57.67a2.18,2.18,0,0,0-.44-1.46,3.26,3.26,0,0,0-1.59-.83v-1h14.73v1c-.91.23-1.36.72-1.36,1.46a2.53,2.53,0,0,0,.89,1.68l23.91,24.87V57.67a2.13,2.13,0,0,0-.45-1.46,3.18,3.18,0,0,0-1.58-.83v-1h12.73v1a3.26,3.26,0,0,0-1.59.83,2.12,2.12,0,0,0-.44,1.46v36.7a2.2,2.2,0,0,0,.44,1.5,3.35,3.35,0,0,0,1.59.82v1H350.81v-1c.89-.19,1.34-.64,1.34-1.36,0-.43-.52-1.17-1.56-2.23Z"/><path class="cls-3" d="M404.73,86.66H385l-2.92,6.09a5.16,5.16,0,0,0-.6,2c0,.94.7,1.58,2.12,1.94v1H369.29v-1a3.77,3.77,0,0,0,1.94-.89,8.78,8.78,0,0,0,1.53-2.47L388.7,60a6.49,6.49,0,0,0,.76-2.54c0-1-.62-1.68-1.84-2.1v-1H403v1c-1.25.36-1.87,1-1.87,1.87a4.69,4.69,0,0,0,.6,2.1l16.51,33.4a11.35,11.35,0,0,0,1.85,2.91,4,4,0,0,0,2.12,1v1H406.24v-1c1.4-.23,2.1-.89,2.1-2a5.15,5.15,0,0,0-.63-2ZM402,80.72l-7-15.44-7.15,15.44Z"/><path class="cls-3" d="M436.58,68V94.37a2.26,2.26,0,0,0,.44,1.5,3.35,3.35,0,0,0,1.59.82v1H425.88v-1a3.26,3.26,0,0,0,1.58-.82,2.2,2.2,0,0,0,.45-1.5V57.67a2.13,2.13,0,0,0-.45-1.46,3.18,3.18,0,0,0-1.58-.83v-1h14.73v1c-.91.23-1.36.72-1.36,1.46a2.56,2.56,0,0,0,.88,1.68L464,83.39V57.67a2.12,2.12,0,0,0-.44-1.46,3.26,3.26,0,0,0-1.59-.83v-1h12.73v1a3.18,3.18,0,0,0-1.58.83,2.13,2.13,0,0,0-.45,1.46v36.7a2.2,2.2,0,0,0,.45,1.5,3.26,3.26,0,0,0,1.58.82v1H461.09v-1c.89-.19,1.33-.64,1.33-1.36,0-.43-.51-1.17-1.55-2.23Z"/><path class="cls-3" d="M496.61,90.56h22.55a2.21,2.21,0,0,0,1.47-.44,3.35,3.35,0,0,0,.82-1.59h1V99.74h-1a3.35,3.35,0,0,0-.82-1.59,2.14,2.14,0,0,0-1.46-.44H481.25V95.48l25.21-34H484.78a2.21,2.21,0,0,0-1.49.43,3.21,3.21,0,0,0-.83,1.6h-1V52.33h1a3.47,3.47,0,0,0,.84,1.6,2.18,2.18,0,0,0,1.48.43h37.34v1.81Z"/><path class="cls-3" d="M560.73,86.66H541l-2.92,6.09a5.16,5.16,0,0,0-.6,2c0,.94.7,1.58,2.12,1.94v1H525.29v-1a3.77,3.77,0,0,0,1.94-.89,8.81,8.81,0,0,0,1.52-2.47L544.69,60a6.37,6.37,0,0,0,.77-2.54c0-1-.62-1.68-1.85-2.1v-1H559v1c-1.25.36-1.87,1-1.87,1.87a4.69,4.69,0,0,0,.6,2.1l16.51,33.4a11.35,11.35,0,0,0,1.85,2.91,4,4,0,0,0,2.12,1v1h-16v-1c1.4-.23,2.1-.89,2.1-2a5,5,0,0,0-.64-2ZM558,80.72l-7-15.44-7.15,15.44Z"/><path class="cls-4" d="M239.64,135l2.48,2.57a8.81,8.81,0,0,0,1.14,1.08,1.19,1.19,0,0,0,.69.2,3.44,3.44,0,0,0,1.07-.3l.5.56-6.85,6.23-.51-.56a2.59,2.59,0,0,0,.46-1.15c0-.28-.43-.94-1.31-2l-2.75-3.37a22.6,22.6,0,0,1-8.43,1.4q-8.17,0-13.07-4.52a15.56,15.56,0,0,1-4-5.78,16.51,16.51,0,0,1-1.19-6.25,16.11,16.11,0,0,1,2.48-8.75q4.81-7.77,15.9-7.77,8.31,0,13.18,4.52a15.73,15.73,0,0,1,4,5.76,16.5,16.5,0,0,1,1.2,6.24A15.87,15.87,0,0,1,239.64,135ZM235,130.34a11.23,11.23,0,0,0,2.48-7.23,10.66,10.66,0,0,0-3.61-8.37,12.14,12.14,0,0,0-15.29,0,11.57,11.57,0,0,0,0,16.79,11.11,11.11,0,0,0,7.68,2.71,12.74,12.74,0,0,0,4.31-.75l-.44-.56a10.47,10.47,0,0,0-5.87-4v-.65a6.08,6.08,0,0,1,3.85-1.31,7,7,0,0,1,3.08.75A21.2,21.2,0,0,1,235,130.34Z"/><path class="cls-4" d="M282.14,109.62v17.9q0,5.08-1.87,7.61-3.37,4.55-13.93,4.54c-5.08,0-9-.82-11.67-2.46a7.47,7.47,0,0,1-3.28-3.88,17,17,0,0,1-.89-5.81v-17.9a1.62,1.62,0,0,0-.33-1.1,2.44,2.44,0,0,0-1.17-.61v-.75h10v.75a2.21,2.21,0,0,0-1.16.6,1.67,1.67,0,0,0-.34,1.11v15.94a20,20,0,0,0,.31,4.08,4.63,4.63,0,0,0,1.14,2.21c1.5,1.6,4.06,2.39,7.68,2.39s6.2-.79,7.7-2.39a4.69,4.69,0,0,0,1.12-2.21,19.25,19.25,0,0,0,.31-4.08V109.62a1.62,1.62,0,0,0-.33-1.1,2.44,2.44,0,0,0-1.17-.61v-.75h9.41v.75a2.44,2.44,0,0,0-1.17.61A1.62,1.62,0,0,0,282.14,109.62Z"/><path class="cls-4" d="M290.24,136.65V109.6a1.59,1.59,0,0,0-.33-1.08,2.44,2.44,0,0,0-1.17-.61v-.75h10v.75a2.21,2.21,0,0,0-1.17.6,1.63,1.63,0,0,0-.33,1.09v27.05a1.6,1.6,0,0,0,.34,1.11,2.21,2.21,0,0,0,1.16.6v.75h-10v-.75a2.44,2.44,0,0,0,1.17-.61A1.62,1.62,0,0,0,290.24,136.65Z"/><path class="cls-4" d="M335.4,128.13l4.45,6.66-.61.42a1.88,1.88,0,0,0-1.08-.61,8.37,8.37,0,0,0-2.36,1.13,32.55,32.55,0,0,1-6.78,3.13,23.27,23.27,0,0,1-6.54.81q-7.56,0-12.4-3.58a15.07,15.07,0,0,1-4.49-5.17,16.19,16.19,0,0,1-1.9-7.8,15.71,15.71,0,0,1,3.4-10.08q5.1-6.44,15.42-6.44a23.32,23.32,0,0,1,6.5.8,33.73,33.73,0,0,1,6.79,3.13,8.16,8.16,0,0,0,2.36,1.1,1.85,1.85,0,0,0,1.08-.6l.61.42-4.45,6.67-.63-.42a5.6,5.6,0,0,0,.05-.63,1.79,1.79,0,0,0-.59-1.27,9.63,9.63,0,0,0-2.08-1.44,17.67,17.67,0,0,0-8.78-2.33q-5.47,0-8.73,2.74a11.06,11.06,0,0,0,0,16.74q3.25,2.73,8.73,2.73a17.58,17.58,0,0,0,8.78-2.34,9.63,9.63,0,0,0,2.08-1.44,1.81,1.81,0,0,0,.59-1.27,4.82,4.82,0,0,0-.05-.61Z"/><path class="cls-4" d="M357.46,124.2l-4.81,3.89v8.56a1.6,1.6,0,0,0,.34,1.11,2.21,2.21,0,0,0,1.16.6v.75h-10v-.75a2.44,2.44,0,0,0,1.17-.61,1.62,1.62,0,0,0,.32-1.1V109.6a1.58,1.58,0,0,0-.32-1.08,2.44,2.44,0,0,0-1.17-.61v-.75h10v.75a2.13,2.13,0,0,0-1.17.6,1.63,1.63,0,0,0-.33,1.09v11.18L365.8,110c.61-.5.91-.89.91-1.19s-.45-.76-1.35-.94v-.75h13.05v.75a4.07,4.07,0,0,0-1.17.38c-.23.14-.91.67-2,1.59l-1.8,1.5-10.87,8.72,12.32,14.82a21,21,0,0,0,2.47,2.66,4.2,4.2,0,0,0,1.9.78v.75H366.75v-.75c.83-.17,1.24-.47,1.24-.89a5.09,5.09,0,0,0-1.12-1.73Z"/><path class="cls-4" d="M403.06,133.84h19.63a1.68,1.68,0,0,0,1.1-.32,2.44,2.44,0,0,0,.61-1.17h.75v8.26h-.75a2.35,2.35,0,0,0-.61-1.17,1.62,1.62,0,0,0-1.1-.33H394.58v-.75a2.35,2.35,0,0,0,1.17-.61,1.62,1.62,0,0,0,.33-1.1v-27a1.62,1.62,0,0,0-.33-1.1,2.35,2.35,0,0,0-1.17-.61v-.75h10v.75a2.21,2.21,0,0,0-1.17.6,1.73,1.73,0,0,0-.32,1.11Z"/><path class="cls-4" d="M445.54,106.6c5.58,0,10,1.51,13.26,4.52a16.62,16.62,0,0,1,2.69,20.78q-4.85,7.77-15.9,7.77-8.29,0-13.18-4.52a15.7,15.7,0,0,1-4-5.78,16.7,16.7,0,0,1-1.19-6.25,16.36,16.36,0,0,1,2.46-8.77Q434.4,106.75,445.54,106.6Zm0,5.43a11.07,11.07,0,0,0-7.62,2.71,11.57,11.57,0,0,0,0,16.79,12.15,12.15,0,0,0,15.3,0,10.68,10.68,0,0,0,2.76-4,11.21,11.21,0,0,0,.85-4.3,10.71,10.71,0,0,0-3.61-8.54A11.52,11.52,0,0,0,445.57,112Z"/><path class="cls-4" d="M490,131H475.47l-2.15,4.5a3.8,3.8,0,0,0-.44,1.47c0,.69.52,1.16,1.56,1.43v.75H463.88v-.75a2.85,2.85,0,0,0,1.43-.66,6.58,6.58,0,0,0,1.12-1.82l11.75-24.55a4.72,4.72,0,0,0,.56-1.87c0-.72-.45-1.23-1.36-1.55v-.75h11.33v.75q-1.38.41-1.38,1.38a3.4,3.4,0,0,0,.44,1.55l12.17,24.62a8.52,8.52,0,0,0,1.36,2.14,3,3,0,0,0,1.57.76v.75H491.11v-.75c1-.17,1.55-.66,1.55-1.45a3.78,3.78,0,0,0-.47-1.45Zm-2-4.37-5.18-11.38-5.27,11.38Z"/><path class="cls-4" d="M513.47,117.23v19.42a1.68,1.68,0,0,0,.32,1.1,2.44,2.44,0,0,0,1.17.61v.75h-9.38v-.75a2.44,2.44,0,0,0,1.17-.61,1.62,1.62,0,0,0,.33-1.1V109.6a1.59,1.59,0,0,0-.33-1.08,2.44,2.44,0,0,0-1.17-.61v-.75h10.86v.75c-.67.18-1,.53-1,1.08a1.9,1.9,0,0,0,.66,1.24l17.62,18.32v-19a1.59,1.59,0,0,0-.33-1.08,2.44,2.44,0,0,0-1.17-.61v-.75h9.38v.75a2.44,2.44,0,0,0-1.17.61,1.64,1.64,0,0,0-.32,1.08v27.05a1.68,1.68,0,0,0,.32,1.1,2.44,2.44,0,0,0,1.17.61v.75H531.53v-.75c.66-.14,1-.48,1-1,0-.31-.38-.85-1.14-1.63Z"/><path class="cls-4" d="M577.07,109.87l-3.81,7.52-.66-.37a2.83,2.83,0,0,0,0-.38q0-.8-1.35-1.71a16.72,16.72,0,0,0-9.78-2.9,14.48,14.48,0,0,0-4.38.61,5.17,5.17,0,0,0-2.23,1.4,2.93,2.93,0,0,0-.86,2c0,1.2.73,2,2.18,2.45a33.89,33.89,0,0,0,4.82.7l3.67.38a29.29,29.29,0,0,1,5.3,1,12.28,12.28,0,0,1,3.59,1.7,8,8,0,0,1,2.52,3,8.86,8.86,0,0,1,.92,4,9.08,9.08,0,0,1-2.17,6,11.68,11.68,0,0,1-6.11,3.53,24.35,24.35,0,0,1-6.62.87,28,28,0,0,1-12.52-3A6.61,6.61,0,0,0,548,136a2,2,0,0,0-1,.51l-.68-.35,3.47-7.84.67.33V129a2.58,2.58,0,0,0,1,1.94,12.88,12.88,0,0,0,4.7,2.34,20.72,20.72,0,0,0,6,1,12.2,12.2,0,0,0,5.31-1.05,5.31,5.31,0,0,0,1.95-1.55,3.35,3.35,0,0,0,.72-2,2.34,2.34,0,0,0-1.71-2.27,22.46,22.46,0,0,0-4.82-.86l-3.6-.38c-2.42-.25-4.13-.49-5.13-.71a13.35,13.35,0,0,1-3-1.09,7.79,7.79,0,0,1-3.35-3.16,8.58,8.58,0,0,1-1.1-4.36,8.85,8.85,0,0,1,2.79-6.7q3.64-3.48,10.95-3.49a24.61,24.61,0,0,1,5.71.63,43.14,43.14,0,0,1,6.6,2.29,7.2,7.2,0,0,0,1.66.54,1.94,1.94,0,0,0,1.15-.54Z"/><path class="cls-2" d="M156.44,50.22h34.95v90.14H159.44A49.72,49.72,0,0,0,170.16,136q12.74-7.08,12.73-19,0-9.76-9-16.11T150,92.38Q163.76,90,170,84.8a16.45,16.45,0,0,0,6.24-13.12q0-12.39-12.89-18.73A48.52,48.52,0,0,0,156.44,50.22Z"/></svg>